<svg xmlns="http://www.w3.org/2000/svg" width="24" height="24" viewBox="0 0 24 24" fill="none" stroke="currentColor" stroke-width="2" stroke-linecap="round" stroke-linejoin="round"><path d="M12 5c.67 0 1.35.09 2 .26 1.78.47 2.9 2.13 2.5 4.02-1.25 1.25-1.25 4.72 0 6-.4 1.89-1.62 3.55-3.4 4.02a5.5 5.5 0 0 1-2.1.26c-.67 0-1.35-.09-2-.26-1.78-.47-2.9-2.13-2.5-4.02 1.25-1.25 1.25-4.72 0-6 .4-1.89 1.62-3.55 3.4-4.02A5.5 5.5 0 0 1 12 5z"/><path d="M8 14v.5"/><path d="M16 14v.5"/><path d="M11.25 16.25h1.5L12 17l-.75-.75z"/></svg>