<svg xmlns="http://www.w3.org/2000/svg" width="24" height="24" viewBox="0 0 24 24" fill="none" stroke="currentColor" stroke-width="2" stroke-linecap="round" stroke-linejoin="round"><path d="M10 5.2a2 2 0 0 1 2-2.2h.4a2 2 0 0 1 2 2.2v.3a2 2 0 0 1-2 2.2h-.4a2 2 0 0 1-2-2.2v-.3Z"/><path d="M8.5 8.5v2.3a2 2 0 0 0 2 2h.1a2 2 0 0 0 2-2v-2.3"/><path d="M9 13v2.8a2 2 0 0 0 2 2h.2a2 2 0 0 0 2-2V13"/><path d="M12 18a2 2 0 0 0-2-2h-.4a2 2 0 0 0-2 2v.3a2 2 0 0 0 2 2h.4a2 2 0 0 0 2-2v-.3Z"/><path d="M14.5 15.5v-2.3a2 2 0 0 1 2-2h.1a2 2 0 0 1 2 2v2.3"/><path d="M15 10V7.2a2 2 0 0 1 2-2h.2a2 2 0 0 1 2 2V10"/></svg>