<svg width="180" height="110" viewBox="0 0 180 110" fill="none" xmlns="http://www.w3.org/2000/svg">
<path d="M149.999 109.5C166.568 109.5 180 96.068 180 79.5C180 62.932 166.568 49.5 149.999 49.5C149.511 49.5 149.031 49.52 148.553 49.558C142.003 21.044 116.488 0.5 84.9989 0.5C53.5099 0.5 27.9949 21.044 21.4449 49.558C20.9679 49.52 20.4879 49.5 19.9999 49.5C8.9539 49.5 -0.00012207 58.454 -0.00012207 69.5C-0.00012207 80.546 8.9539 89.5 19.9999 89.5L29.9999 89.5C29.9999 100.546 38.9539 109.5 49.9999 109.5H149.999Z" fill="white"/>
</svg>
